<?xml version="1.0" encoding="utf-8"?>
<svg xmlns="http://www.w3.org/2000/svg" width="760" height="300" viewBox="0 0 760 300">
 <rect width="760" height="300" fill="white"/>
 <text x="380" y="28" text-anchor="middle" font-family="sans-serif" font-size="18" font-weight="bold">Magnitude of the Van Beeck external-validation effect</text>
 <text x="380" y="52" text-anchor="middle" font-family="sans-serif" font-size="12">Joint contribution of PC1 + PC2 beyond treatment + dairy</text>
 <line x1="100" y1="145" x2="680" y2="145" stroke="black" stroke-width="1"/>
 <line x1="100" y1="130" x2="100" y2="160" stroke="black"/>
 <line x1="197" y1="130" x2="197" y2="160" stroke="black"/>
 <line x1="293" y1="130" x2="293" y2="160" stroke="black"/>
 <line x1="390" y1="130" x2="390" y2="160" stroke="black"/>
 <line x1="487" y1="130" x2="487" y2="160" stroke="black"/>
 <line x1="583" y1="130" x2="583" y2="160" stroke="black"/>
 <line x1="680" y1="130" x2="680" y2="160" stroke="black"/>
 <text x="100" y="180" text-anchor="middle" font-family="sans-serif" font-size="10">0.0</text>
 <text x="197" y="180" text-anchor="middle" font-family="sans-serif" font-size="10">0.1</text>
 <text x="293" y="180" text-anchor="middle" font-family="sans-serif" font-size="10">0.2</text>
 <text x="390" y="180" text-anchor="middle" font-family="sans-serif" font-size="10">0.3</text>
 <text x="487" y="180" text-anchor="middle" font-family="sans-serif" font-size="10">0.4</text>
 <text x="583" y="180" text-anchor="middle" font-family="sans-serif" font-size="10">0.5</text>
 <text x="680" y="180" text-anchor="middle" font-family="sans-serif" font-size="10">0.6</text>
 <line x1="148" y1="105" x2="647" y2="105" stroke="black" stroke-width="3"/>
 <line x1="148" y1="97" x2="148" y2="113" stroke="black" stroke-width="2"/>
 <line x1="647" y1="97" x2="647" y2="113" stroke="black" stroke-width="2"/>
 <circle cx="316" cy="105" r="6" fill="black"/>
 <polygon points="309,220 316,213 323,220 316,227" fill="black"/>
 <text x="335" y="110" font-family="sans-serif" font-size="12">bootstrap median = 0.223; 95% interval = 0.0499–0.566</text>
 <text x="335" y="224" font-family="sans-serif" font-size="12">observed partial R² = 0.216</text>
 <text x="380" y="270" text-anchor="middle" font-family="sans-serif" font-size="11">Partial R² for adding baseline PC1 + PC2</text>
</svg>
